<svg xmlns="http://www.w3.org/2000/svg" xmlns:svgjs="http://svgjs.com/svgjs" xmlns:xlink="http://www.w3.org/1999/xlink" width="288" height="288"><svg xmlns="http://www.w3.org/2000/svg" width="288" height="288" viewBox="0 0 32 32"><g fill="#2d6cdf" class="color000 svgShape" data-name="Layer 2"><path d="M16 30.75A14.75 14.75 0 1 1 30.75 16 14.77 14.77 0 0 1 16 30.75Zm0-28A13.25 13.25 0 1 0 29.25 16 13.27 13.27 0 0 0 16 2.75Z" class="color000 svgShape"/><path d="M16 2a14 14 0 1 0 14 14A14 14 0 0 0 16 2ZM8.62 22.7a.76.76 0 0 1-1.11-.11 10.7 10.7 0 0 1-1.13-1.79.75.75 0 1 1 1.34-.67 9.18 9.18 0 0 0 1 1.53.76.76 0 0 1-.1 1.04ZM6.8 15.28a.76.76 0 0 1-.75.72H6a.75.75 0 0 1-.75-.78 10.77 10.77 0 0 1 9.94-9.94A.75.75 0 0 1 16 6a.76.76 0 0 1-.72.75 9.24 9.24 0 0 0-8.48 8.53ZM16 20a4 4 0 1 1 4-4 4 4 0 0 1-4 4Z" class="color000 svgShape"/></g></svg></svg>